# xmcd
#
# Track frame offsets:
#	228
#	5841
#	29342
#	46914
#	75342
#	96337
#	116629
#	139788
#	156980
#	175140
#	193983
#	214926
#	230940
#
# Disc length: 3397 seconds
#
# Revision: 1
# Processed by: cddbd v1.5.2PL0 Copyright (c) Steve Scherf et al.
# Submitted via: audiograbber 1.83.01
#
DISCID=b90d420d
DTITLE=Jan James - Drive Me Home
DYEAR=2006
DGENRE=Blues
TTITLE0=Drive Me Home
TTITLE1=Good Times Rolling In
TTITLE2=Little Bit Of Lovin'
TTITLE3=Man On A Train
TTITLE4=Hush
TTITLE5=Living For The City
TTITLE6=Rock Your Woman
TTITLE7=Slow Burner
TTITLE8=Someone Like You
TTITLE9=Your Turn To Cry
TTITLE10=Ramblin Rider
TTITLE11=My Man
TTITLE12=Soldier
EXTD=
EXTT0=
EXTT1=
EXTT2=
EXTT3=
EXTT4=
EXTT5=
EXTT6=
EXTT7=
EXTT8=
EXTT9=
EXTT10=
EXTT11=
EXTT12=
PLAYORDER=
